<svg width="474" height="474" viewBox="0 0 474 474" fill="none" xmlns="http://www.w3.org/2000/svg">
<g clip-path="url(#clip0_3_60)">
<g opacity="0.7" filter="url(#filter0_d_3_60)">
<path d="M64.3976 158.401C64.3976 158.401 37.9674 226.657 75.11 295.387C112.253 364.117 188.756 400.426 249.988 431.473C311.219 462.52 374.801 447.399 405.014 396.548C435.227 345.698 393.79 309.399 393.733 236.886C393.676 164.374 404.587 145.177 365.293 83.9169C325.998 22.6572 229.672 9.09131 156.828 54.5289C83.9833 99.9666 64.3976 158.401 64.3976 158.401Z" fill="#737373" fill-opacity="0.4" shape-rendering="crispEdges"/>
</g>
<path d="M65.412 409.214H265.62C266.426 407.924 267.241 406.635 268.075 405.374C289.614 372.592 324.102 349.215 361.766 338.246C378.641 333.336 396.918 330.416 410.475 319.23C424.429 307.73 430.838 289.377 433.606 271.507C436.971 249.874 435.151 225.615 420.466 209.375C403.222 190.311 374.327 188.169 351.86 175.674C313.191 154.154 298.203 105.152 263.023 78.3048C240.792 61.3451 210.797 54.7754 183.912 58.4916C145.812 63.772 109.968 89.3016 99.2082 126.748C96.115 137.654 95.0104 149.028 95.9471 160.326C97.663 182.651 102.469 205.261 97.9379 227.188C92.9419 251.353 77.2241 271.744 67.8294 294.581C56.1311 323.021 54.5574 354.874 59.5154 385.191C60.8425 393.342 62.8142 401.375 65.412 409.214Z" fill="#38D112"/>
<path opacity="0.7" d="M65.412 409.214H265.62C266.426 407.924 267.241 406.635 268.075 405.374C289.614 372.592 324.102 349.215 361.766 338.246C378.641 333.336 396.918 330.416 410.475 319.23C424.429 307.73 430.838 289.377 433.606 271.507C436.971 249.874 435.151 225.615 420.466 209.375C403.222 190.311 374.327 188.169 351.86 175.674C313.191 154.154 298.203 105.152 263.023 78.3048C240.792 61.3451 210.797 54.7754 183.912 58.4916C145.812 63.772 109.968 89.3016 99.2082 126.748C96.115 137.654 95.0104 149.028 95.9471 160.326C97.663 182.651 102.469 205.261 97.9379 227.188C92.9419 251.353 77.2241 271.744 67.8294 294.581C56.1311 323.021 54.5574 354.874 59.5154 385.191C60.8425 393.342 62.8142 401.375 65.412 409.214Z" fill="url(#paint0_linear_3_60)"/>
<path d="M39.8065 409.214H436.374" stroke="#939393" stroke-opacity="0.64" stroke-linecap="round" stroke-linejoin="round"/>
<path d="M264.492 107.494V92.6101L253.344 91.6621C252.692 89.3344 251.769 87.0913 250.594 84.9787L257.79 76.4467L247.267 65.9239L238.735 73.1192C236.64 71.94 234.412 71.0139 232.099 70.3606L231.151 59.2121H216.144L215.196 70.3606C212.883 71.0139 210.655 71.94 208.56 73.1192L200.028 65.9239L189.505 76.4467L196.701 84.9787C195.526 87.0913 194.603 89.3344 193.951 91.6621L182.803 92.6101V107.494L193.951 108.442C194.607 110.753 195.529 112.98 196.701 115.078L189.505 123.61L200.028 134.133L208.56 126.937C210.655 128.116 212.883 129.043 215.196 129.696L216.144 140.844H231.028L231.976 129.696C234.305 129.043 236.548 128.117 238.659 126.937L247.191 134.133L257.714 123.61L250.519 115.078C251.69 112.98 252.613 110.753 253.268 108.442L264.492 107.494ZM223.633 117.343C220.213 117.343 216.87 116.329 214.027 114.429C211.183 112.529 208.967 109.829 207.658 106.669C206.349 103.509 206.007 100.033 206.674 96.6785C207.341 93.3243 208.988 90.2432 211.406 87.825C213.825 85.4067 216.906 83.7598 220.26 83.0927C223.614 82.4255 227.091 82.7679 230.25 84.0766C233.41 85.3854 236.111 87.6017 238.011 90.4453C239.911 93.2888 240.925 96.632 240.925 100.052C240.923 102.326 240.474 104.577 239.602 106.676C238.731 108.776 237.453 110.684 235.844 112.29C234.235 113.895 232.324 115.168 230.223 116.036C228.121 116.903 225.869 117.347 223.595 117.343H223.633Z" stroke="#263238" stroke-linecap="round" stroke-linejoin="round"/>
<g opacity="0.7" filter="url(#filter1_d_3_60)">
<path d="M424.41 252.964V245.835L419.063 245.371C418.749 244.256 418.306 243.181 417.746 242.167L421.196 238.062L416.172 233.018L412.077 236.469C411.065 235.904 409.989 235.462 408.872 235.151L408.408 229.805H401.269L400.814 235.151C399.697 235.46 398.621 235.903 397.61 236.469L393.505 233.018L388.462 238.062L391.913 242.167C391.345 243.178 390.899 244.254 390.586 245.371L385.239 245.835V252.964L390.586 253.429C390.899 254.546 391.345 255.621 391.913 256.633L388.434 260.7L393.477 265.743L397.582 262.293C398.593 262.859 399.669 263.302 400.786 263.61L401.241 268.957H408.379L408.844 263.61C409.961 263.3 411.036 262.857 412.048 262.293L416.144 265.743L421.196 260.7L417.746 256.595C418.306 255.581 418.749 254.506 419.063 253.391L424.41 252.964ZM404.815 257.704C403.174 257.706 401.569 257.221 400.204 256.311C398.839 255.401 397.774 254.106 397.145 252.59C396.515 251.075 396.35 249.407 396.669 247.797C396.988 246.187 397.777 244.708 398.937 243.547C400.096 242.386 401.574 241.595 403.184 241.274C404.793 240.954 406.461 241.117 407.978 241.745C409.494 242.372 410.79 243.436 411.702 244.8C412.614 246.164 413.101 247.768 413.101 249.409C413.099 250.499 412.883 251.577 412.465 252.583C412.047 253.589 411.435 254.503 410.664 255.272C409.893 256.041 408.978 256.651 407.971 257.067C406.964 257.483 405.885 257.696 404.796 257.695L404.815 257.704Z" fill="#737373" fill-opacity="0.9" shape-rendering="crispEdges"/>
</g>
<path d="M419.016 123.05C419.773 119.774 419.668 116.357 418.712 113.134C417.755 109.91 415.98 106.989 413.559 104.656C411.137 102.322 408.153 100.656 404.896 99.8192C401.639 98.9825 398.221 99.0039 394.975 99.8813C392.997 96.3744 389.939 93.6005 386.257 91.9731C382.574 90.3456 378.464 89.9518 374.54 90.8504C370.615 91.7489 367.086 93.8917 364.478 96.9592C361.871 100.027 360.324 103.855 360.069 107.873C358.006 107.478 355.883 107.514 353.834 107.979C351.785 108.444 349.855 109.327 348.163 110.573C346.472 111.82 345.057 113.402 344.006 115.221C342.955 117.04 342.292 119.057 342.057 121.145C339.944 121.367 337.99 122.37 336.577 123.957C335.165 125.544 334.395 127.601 334.419 129.725C334.442 131.85 335.258 133.889 336.706 135.444C338.154 136.999 340.129 137.958 342.247 138.133H413.612C415.36 138.12 417.061 137.571 418.487 136.56C419.912 135.549 420.992 134.124 421.582 132.479C422.171 130.834 422.241 129.047 421.782 127.361C421.323 125.675 420.358 124.17 419.016 123.05Z" stroke="#38D112" stroke-width="2" stroke-linecap="round" stroke-linejoin="round"/>
<path d="M379.797 131.611V151.282" stroke="#38D112" stroke-width="2" stroke-linecap="round" stroke-linejoin="round"/>
<path d="M379.797 119.818V127.677" stroke="#38D112" stroke-width="2" stroke-linecap="round" stroke-linejoin="round"/>
<path d="M379.797 112.461V116.67" stroke="#38D112" stroke-width="2" stroke-linecap="round" stroke-linejoin="round"/>
<path d="M376.081 148.988L379.797 153.585L383.513 148.988" stroke="#38D112" stroke-width="2" stroke-linecap="round" stroke-linejoin="round"/>
<path d="M201.583 353.746C202.337 350.469 202.231 347.053 201.273 343.829C200.315 340.606 198.539 337.686 196.117 335.353C193.695 333.02 190.71 331.353 187.453 330.517C184.197 329.68 180.778 329.701 177.532 330.577C175.556 327.068 172.498 324.291 168.815 322.663C165.132 321.034 161.02 320.64 157.095 321.54C153.169 322.44 149.64 324.586 147.034 327.657C144.428 330.727 142.886 334.559 142.636 338.578C141.699 338.399 140.747 338.307 139.792 338.303C136.042 338.3 132.422 339.679 129.624 342.177C126.826 344.674 125.046 348.114 124.624 351.841C122.511 352.062 120.557 353.064 119.143 354.65C117.729 356.236 116.958 358.292 116.981 360.417C117.004 362.541 117.818 364.581 119.265 366.137C120.712 367.693 122.687 368.653 124.804 368.829H196.236C197.981 368.81 199.679 368.257 201.099 367.244C202.52 366.23 203.596 364.806 204.182 363.162C204.768 361.518 204.836 359.734 204.376 358.05C203.916 356.366 202.951 354.864 201.611 353.746H201.583Z" stroke="#0094FF" stroke-width="2" stroke-linecap="round" stroke-linejoin="round"/>
<path d="M162.336 365.122V345.461" stroke="#0094FF" stroke-width="2" stroke-linecap="round" stroke-linejoin="round"/>
<path d="M162.336 376.925V369.056" stroke="#0094FF" stroke-width="2" stroke-linecap="round" stroke-linejoin="round"/>
<path d="M162.336 384.281V380.072" stroke="#0094FF" stroke-width="2" stroke-linecap="round" stroke-linejoin="round"/>
<path d="M166.052 347.755L162.336 343.157L158.619 347.755" stroke="#0094FF" stroke-width="2" stroke-linecap="round" stroke-linejoin="round"/>
<path d="M50.699 104.185H289.074C290.14 104.185 291.162 104.609 291.916 105.363C292.67 106.116 293.093 107.139 293.093 108.205V119.448H46.6795V108.205C46.6795 107.139 47.103 106.116 47.8568 105.363C48.6106 104.609 49.633 104.185 50.699 104.185Z" fill="#38D112" stroke="#263238" stroke-linecap="round" stroke-linejoin="round"/>
<path d="M306.517 122.264H57.4678V297.52H306.517V122.264Z" fill="white" stroke="#263238" stroke-linecap="round" stroke-linejoin="round"/>
<path d="M310.328 111.807C310.328 112.557 310.105 113.29 309.689 113.914C309.272 114.537 308.68 115.023 307.987 115.31C307.294 115.597 306.532 115.673 305.796 115.526C305.06 115.38 304.385 115.019 303.854 114.488C303.324 113.958 302.963 113.282 302.817 112.547C302.67 111.811 302.745 111.049 303.032 110.356C303.319 109.663 303.805 109.071 304.429 108.654C305.053 108.238 305.786 108.015 306.536 108.015C307.541 108.015 308.506 108.415 309.217 109.126C309.928 109.837 310.328 110.801 310.328 111.807Z" fill="white" stroke="#263238" stroke-linecap="round" stroke-linejoin="round"/>
<path d="M296.904 111.807C296.904 112.557 296.682 113.29 296.265 113.914C295.848 114.537 295.256 115.023 294.563 115.31C293.87 115.597 293.108 115.673 292.372 115.526C291.637 115.38 290.961 115.019 290.431 114.488C289.9 113.958 289.539 113.282 289.393 112.547C289.247 111.811 289.322 111.049 289.609 110.356C289.896 109.663 290.382 109.071 291.005 108.654C291.629 108.238 292.362 108.015 293.112 108.015C294.118 108.015 295.082 108.415 295.793 109.126C296.505 109.837 296.904 110.801 296.904 111.807Z" fill="white" stroke="#263238" stroke-linecap="round" stroke-linejoin="round"/>
<path d="M283.452 111.807C283.452 112.557 283.23 113.29 282.813 113.914C282.396 114.537 281.804 115.023 281.111 115.31C280.418 115.597 279.656 115.673 278.92 115.526C278.185 115.38 277.509 115.019 276.979 114.488C276.448 113.958 276.087 113.282 275.941 112.547C275.795 111.811 275.87 111.049 276.157 110.356C276.444 109.663 276.93 109.071 277.553 108.654C278.177 108.238 278.91 108.015 279.66 108.015C280.666 108.015 281.63 108.415 282.341 109.126C283.052 109.837 283.452 110.801 283.452 111.807Z" fill="white" stroke="#263238" stroke-linecap="round" stroke-linejoin="round"/>
<path d="M298.971 129.781H289.112" stroke="#263238" stroke-width="2" stroke-linecap="round" stroke-linejoin="round"/>
<path d="M298.971 133.782H289.112" stroke="#263238" stroke-width="2" stroke-linecap="round" stroke-linejoin="round"/>
<path d="M298.971 137.782H289.112" stroke="#263238" stroke-width="2" stroke-linecap="round" stroke-linejoin="round"/>
<path d="M74.7119 233.189H149.348" stroke="#263238" stroke-width="2" stroke-linecap="round" stroke-linejoin="round"/>
<path d="M74.7119 239.076H149.348" stroke="#263238" stroke-width="2" stroke-linecap="round" stroke-linejoin="round"/>
<path d="M74.7119 245.068H133.564" stroke="#263238" stroke-width="2" stroke-linecap="round" stroke-linejoin="round"/>
<path d="M232.98 124.235V124.709" stroke="#263238" stroke-linecap="round" stroke-linejoin="round"/>
<path d="M232.98 127.553V292.723" stroke="#263238" stroke-linecap="round" stroke-linejoin="round" stroke-dasharray="1 3"/>
<path d="M232.98 294.145V294.619" stroke="#263238" stroke-linecap="round" stroke-linejoin="round"/>
<path d="M60.4634 258.216H60.9374" stroke="#263238" stroke-linecap="round" stroke-linejoin="round"/>
<path d="M63.772 258.216H300.81" stroke="#263238" stroke-linecap="round" stroke-linejoin="round" stroke-dasharray="1 2.99"/>
<path d="M302.232 258.216H302.706" stroke="#263238" stroke-linecap="round" stroke-linejoin="round"/>
<path d="M234.621 256.576H231.35V259.847H234.621V256.576Z" fill="white" stroke="#263238" stroke-linecap="round" stroke-linejoin="round"/>
<path d="M219.927 226.8H176.262" stroke="#263238" stroke-linecap="round" stroke-linejoin="round"/>
<path d="M220.77 246.992C220.77 246.992 220.77 226.695 198.094 226.695C175.418 226.695 175.38 246.992 175.38 246.992" stroke="#263238" stroke-linecap="round" stroke-linejoin="round"/>
<path d="M220.77 248.907C221.828 248.907 222.685 248.05 222.685 246.992C222.685 245.934 221.828 245.077 220.77 245.077C219.713 245.077 218.855 245.934 218.855 246.992C218.855 248.05 219.713 248.907 220.77 248.907Z" fill="#38D112" stroke="#263238" stroke-linecap="round" stroke-linejoin="round"/>
<path d="M173.484 246.992C173.484 246.617 173.595 246.25 173.804 245.939C174.012 245.627 174.308 245.384 174.654 245.24C175.001 245.097 175.382 245.059 175.75 245.132C176.118 245.206 176.456 245.386 176.721 245.651C176.986 245.916 177.166 246.254 177.24 246.622C177.313 246.99 177.275 247.371 177.132 247.718C176.988 248.064 176.745 248.36 176.433 248.568C176.122 248.777 175.755 248.888 175.38 248.888C174.877 248.888 174.395 248.688 174.039 248.333C173.684 247.977 173.484 247.495 173.484 246.992Z" fill="#38D112" stroke="#263238" stroke-linecap="round" stroke-linejoin="round"/>
<path d="M219.092 228.373H222.448V225.017H219.092V228.373Z" fill="#38D112" stroke="#263238" stroke-linecap="round" stroke-linejoin="round"/>
<path d="M196.416 228.373H199.772V225.017H196.416V228.373Z" fill="#38D112" stroke="#263238" stroke-linecap="round" stroke-linejoin="round"/>
<path d="M173.74 228.373H177.096V225.017H173.74V228.373Z" fill="#38D112" stroke="#263238" stroke-linecap="round" stroke-linejoin="round"/>
<path d="M101.844 165.777V159.065L96.8287 158.638C96.531 157.589 96.1143 156.578 95.5868 155.624L98.829 151.775L94.089 147.035L90.2306 150.277C89.2797 149.743 88.2674 149.326 87.216 149.035L86.7799 144.011H80.087L79.651 149.035C78.6021 149.324 77.5928 149.741 76.6458 150.277L72.7874 147.035L68.0474 151.775L71.2896 155.624C70.7582 156.576 70.3413 157.588 70.0477 158.638L65.0233 159.065V165.777L70.0477 166.203C70.343 167.253 70.7597 168.265 71.2896 169.218L68.0474 173.067L72.7874 177.807L76.6458 174.565C77.5869 175.099 78.5897 175.516 79.632 175.807L80.0681 180.831H86.7704L87.2065 175.807C88.2547 175.515 89.2637 175.098 90.2117 174.565L94.07 177.807L98.81 173.067L95.5679 169.218C96.0938 168.263 96.5103 167.252 96.8098 166.203L101.844 165.777ZM83.424 170.213C81.8828 170.213 80.3762 169.756 79.0947 168.9C77.8132 168.044 76.8144 166.827 76.2246 165.403C75.6348 163.979 75.4805 162.412 75.7812 160.901C76.0818 159.389 76.824 158 77.9138 156.911C79.0036 155.821 80.3921 155.079 81.9037 154.778C83.4154 154.477 84.9822 154.632 86.4061 155.221C87.83 155.811 89.047 156.81 89.9033 158.092C90.7595 159.373 91.2166 160.88 91.2166 162.421C91.2166 164.488 90.3956 166.47 88.9342 167.931C87.4728 169.392 85.4907 170.213 83.424 170.213Z" fill="#38D112" stroke="#263238" stroke-linecap="round" stroke-linejoin="round"/>
<path d="M124.634 180.812V176.224L121.192 175.92C120.994 175.203 120.711 174.513 120.349 173.863L122.567 171.228L119.315 167.986L116.68 170.204C116.029 169.842 115.339 169.556 114.623 169.351L114.329 165.9H109.74L109.437 169.341C108.721 169.547 108.031 169.833 107.38 170.194L104.745 167.976L101.493 171.218L103.721 173.854C103.351 174.501 103.065 175.192 102.867 175.911L99.4262 176.214V180.803L102.867 181.096C103.063 181.816 103.35 182.507 103.721 183.154L101.493 185.808L104.745 189.05L107.38 186.832C108.031 187.193 108.721 187.48 109.437 187.685L109.74 191.117H114.329L114.623 187.685C115.339 187.48 116.029 187.193 116.68 186.832L119.315 189.05L122.567 185.808L120.396 183.163C120.76 182.514 121.044 181.824 121.24 181.106L124.634 180.812ZM112.035 183.846C110.978 183.848 109.945 183.536 109.066 182.95C108.187 182.364 107.501 181.531 107.096 180.555C106.691 179.58 106.584 178.506 106.79 177.469C106.996 176.433 107.504 175.481 108.251 174.734C108.998 173.987 109.95 173.479 110.986 173.273C112.022 173.068 113.096 173.174 114.072 173.579C115.048 173.984 115.881 174.67 116.467 175.549C117.053 176.428 117.364 177.461 117.362 178.518C117.36 179.93 116.798 181.284 115.799 182.282C114.801 183.281 113.447 183.843 112.035 183.846Z" fill="#38D112" stroke="#263238" stroke-linecap="round" stroke-linejoin="round"/>
<path d="M242.347 269.365H279.063" stroke="#263238" stroke-width="2" stroke-linecap="round" stroke-linejoin="round"/>
<path d="M242.347 275.252H279.063" stroke="#263238" stroke-width="2" stroke-linecap="round" stroke-linejoin="round"/>
<path d="M242.347 281.243H263.279" stroke="#263238" stroke-width="2" stroke-linecap="round" stroke-linejoin="round"/>
<path d="M193.97 283.689H174.641C173.383 283.689 172.178 283.19 171.289 282.301C170.4 281.412 169.901 280.206 169.901 278.949C169.901 277.692 170.4 276.486 171.289 275.597C172.178 274.708 173.383 274.209 174.641 274.209H193.97C195.227 274.209 196.433 274.708 197.322 275.597C198.211 276.486 198.71 277.692 198.71 278.949C198.71 280.206 198.211 281.412 197.322 282.301C196.433 283.19 195.227 283.689 193.97 283.689Z" fill="#38D112" stroke="#263238" stroke-linecap="round" stroke-linejoin="round"/>
<path d="M229.994 283.689H210.665C209.407 283.689 208.202 283.19 207.313 282.301C206.424 281.412 205.925 280.206 205.925 278.949C205.925 277.692 206.424 276.486 207.313 275.597C208.202 274.708 209.407 274.209 210.665 274.209H229.994C231.251 274.209 232.457 274.708 233.346 275.597C234.235 276.486 234.734 277.692 234.734 278.949C234.734 280.206 234.235 281.412 233.346 282.301C232.457 283.19 231.251 283.689 229.994 283.689Z" fill="#38D112" stroke="#263238" stroke-linecap="round" stroke-linejoin="round"/>
<path d="M286.021 181.988H245.03V222.979H286.021V181.988Z" fill="white" stroke="#263238" stroke-linecap="round" stroke-linejoin="round"/>
<path d="M245.03 181.988L286.021 222.979" stroke="#263238" stroke-linecap="round" stroke-linejoin="round"/>
<path d="M286.021 181.988L245.03 222.979" stroke="#263238" stroke-linecap="round" stroke-linejoin="round"/>
<path d="M261.108 135.45V145.016L256.889 149.234H247.324V135.45H261.108Z" fill="white" stroke="#263238" stroke-linecap="round" stroke-linejoin="round"/>
<path d="M261.108 145.016L256.889 149.234V145.016H261.108Z" fill="white" stroke="#263238" stroke-linecap="round" stroke-linejoin="round"/>
<path d="M114.518 209.423V218.988L110.3 223.216H100.734V209.423H114.518Z" fill="white" stroke="#263238" stroke-linecap="round" stroke-linejoin="round"/>
<path d="M114.518 218.988L110.3 223.216V218.988H114.518Z" fill="white" stroke="#263238" stroke-linecap="round" stroke-linejoin="round"/>
<path d="M62.4353 268.36V277.925L58.2167 282.144H48.6419V268.36H62.4353Z" fill="white" stroke="#263238" stroke-linecap="round" stroke-linejoin="round"/>
<path d="M62.4353 277.925L58.2167 282.144V277.925H62.4353Z" fill="white" stroke="#263238" stroke-linecap="round" stroke-linejoin="round"/>
<path d="M330.539 157.633H279.669V189.515H330.539V157.633Z" fill="#263238" stroke="#263238" stroke-linecap="round" stroke-linejoin="round"/>
<path d="M330.539 157.633H279.669V162.478H330.539V157.633Z" fill="#38D112" stroke="#263238" stroke-linecap="round" stroke-linejoin="round"/>
<path d="M284.855 166.564H297.862" stroke="white" stroke-linecap="round" stroke-linejoin="round"/>
<path d="M291.358 170.194H313.864" stroke="white" stroke-linecap="round" stroke-linejoin="round"/>
<path d="M288.486 173.579H295.112" stroke="white" stroke-linecap="round" stroke-linejoin="round"/>
<path d="M291.358 177.57H306.517" stroke="white" stroke-linecap="round" stroke-linejoin="round"/>
<path d="M284.855 181.191H297.862" stroke="white" stroke-linecap="round" stroke-linejoin="round"/>
<path d="M139.223 285.907H88.3536V317.789H139.223V285.907Z" fill="#263238" stroke="#263238" stroke-linecap="round" stroke-linejoin="round"/>
<path d="M139.223 285.907H88.3536V290.752H139.223V285.907Z" fill="#38D112" stroke="#263238" stroke-linecap="round" stroke-linejoin="round"/>
<path d="M93.5486 294.847H106.546" stroke="white" stroke-linecap="round" stroke-linejoin="round"/>
<path d="M100.042 298.468H122.548" stroke="white" stroke-linecap="round" stroke-linejoin="round"/>
<path d="M97.17 301.853H103.797" stroke="white" stroke-linecap="round" stroke-linejoin="round"/>
<path d="M100.042 305.844H115.201" stroke="white" stroke-linecap="round" stroke-linejoin="round"/>
<path d="M93.5486 309.475H106.546" stroke="white" stroke-linecap="round" stroke-linejoin="round"/>
<path d="M158.316 54.984H111.58C111.032 54.9865 110.508 55.205 110.121 55.5921C109.734 55.9791 109.515 56.5033 109.513 57.0506V78.8546C109.515 79.4011 109.734 79.9243 110.122 80.3099C110.509 80.6954 111.033 80.9118 111.58 80.9118H132.53L134.919 89.4438L137.318 80.9118H158.316C158.862 80.9118 159.387 80.6954 159.774 80.3099C160.161 79.9243 160.38 79.4011 160.383 78.8546V57.0506C160.38 56.5033 160.162 55.9791 159.775 55.5921C159.388 55.205 158.863 54.9865 158.316 54.984Z" fill="#38D112" stroke="#3E3E3E" stroke-linecap="round" stroke-linejoin="round"/>
<path d="M117.268 61.2218H152.581" stroke="#3E3E3E" stroke-width="2" stroke-linecap="round" stroke-linejoin="round"/>
<path d="M117.268 65.6964H152.581" stroke="#3E3E3E" stroke-width="2" stroke-linecap="round" stroke-linejoin="round"/>
<path d="M117.268 70.171H152.581" stroke="#3E3E3E" stroke-width="2" stroke-linecap="round" stroke-linejoin="round"/>
<path d="M117.268 74.6455H143.878" stroke="#3E3E3E" stroke-width="2" stroke-linecap="round" stroke-linejoin="round"/>
<path d="M234.981 210.058C229.966 210.484 223.605 204.493 223.605 204.493C223.483 204.619 223.333 204.715 223.168 204.773C223.003 204.831 222.826 204.85 222.652 204.828C222.478 204.806 222.312 204.743 222.166 204.646C222.02 204.548 221.9 204.418 221.813 204.266C220.998 203.09 217.462 200.369 217.263 198.018C217.064 195.667 221.235 191.856 221.235 191.856C218.021 192.728 217.68 190.842 217.68 190.842C217.68 190.842 223.093 186.377 224.989 186.254C225.728 186.206 228.951 188.064 232.07 190.567C235.332 193.193 241.456 202.436 241.456 202.436C241.456 202.436 260.767 217.651 266 221.5C276 228.855 282.504 235.426 282.504 235.426C282.504 235.426 309.996 247.826 317.58 254.642L307.323 278.93C307.323 278.93 284 260.5 280 258C277.669 256.068 274.835 256.235 272.332 253.457C269.829 250.68 267.431 247.504 267.431 247.504C264 243.5 261.944 242.045 258.5 238.5C252.66 232.499 251.5 230.5 246.5 224.5C244.289 221.847 237.479 212.441 234.981 210.058Z" fill="#FFCBAE" stroke="#263238" stroke-linecap="round" stroke-linejoin="round"/>
<path d="M236.507 206.512C236.507 206.512 229.046 204.702 228.402 199.782C228.117 198.534 227.571 197.361 226.8 196.34C226.8 196.34 219.841 195.999 220.277 193.164L229.568 192.34C232.949 193.639 235.797 196.036 237.654 199.146" fill="#FFCBAE"/>
<path d="M236.507 206.512C236.507 206.512 229.046 204.702 228.402 199.782C228.117 198.534 227.571 197.361 226.8 196.34C226.8 196.34 219.841 195.999 220.277 193.164L229.568 192.34C232.949 193.639 235.797 196.036 237.654 199.146" stroke="#263238" stroke-linecap="round" stroke-linejoin="round"/>
<path d="M223.595 204.493C223.926 203.879 224.037 203.169 223.908 202.483C223.908 202.483 225.956 202.104 225.728 200.293C225.728 200.293 228.762 199.924 226.8 196.34" stroke="#263238" stroke-linecap="round" stroke-linejoin="round"/>
<path d="M225.728 200.293C225.728 200.293 221.642 197.269 221.187 195.885" stroke="#263238" stroke-linecap="round" stroke-linejoin="round"/>
<path d="M223.908 202.483C223.908 202.483 219.557 199.829 219.481 198.284" stroke="#263238" stroke-linecap="round" stroke-linejoin="round"/>
<path d="M224.904 188.851C224.904 188.851 223.519 191.335 221.225 191.856" stroke="#263238" stroke-linecap="round" stroke-linejoin="round"/>
<path d="M224.211 189.818C224.939 190.198 225.625 190.652 226.259 191.174" stroke="#263238" stroke-linecap="round" stroke-linejoin="round"/>
<path d="M383.106 273.782C372.379 269.243 361.313 265.547 350.011 262.729C333.364 258.832 306.403 255.353 306.403 255.353C306.403 255.353 313.816 331.004 311.864 335.554C309.911 340.104 298.193 355.386 298.193 355.386C298.193 355.386 361.605 380.11 372.659 382.215C383.712 384.319 377.949 345.954 377.949 345.954C377.949 345.954 389.628 297.189 383.106 273.782Z" fill="#263238"/>
<path d="M360.344 265.658C360.344 265.658 361.852 268.502 357.889 269.99C347.622 273.782 336.682 270.436 337.848 266.416C338.294 264.881 340.834 266.416 340.692 260.728C340.622 259.852 340.388 258.996 340 258.207C339.276 256.668 338.403 255.205 337.393 253.836C336.297 252.314 335.124 250.849 333.876 249.447C333.876 249.447 350.172 239.019 362.259 249.447C362.24 249.4 357.747 251.675 360.344 265.658Z" fill="#FFCBAE" stroke="#263238" stroke-linecap="round" stroke-linejoin="round"/>
<path d="M380.537 400.397C374.119 410.825 341.555 415.764 323.78 415.3C306.005 414.835 254.86 390.652 251.391 385.495C248.177 380.755 240.28 365.046 252.452 355.557C253.485 354.76 254.582 354.049 255.733 353.433C264.065 348.921 319.485 363.15 319.485 363.15C319.485 363.15 322.917 360.979 324.178 361.141C328.046 361.634 330.814 364.762 338.626 366.99C344.096 368.554 359.027 362.544 368.563 367.71C369.622 368.276 370.598 368.984 371.464 369.815C380.376 378.328 386.945 389.941 380.537 400.397Z" fill="#38D112"/>
<mask id="mask0_3_60" style="mask-type:luminance" maskUnits="userSpaceOnUse" x="245" y="352" width="139" height="64">
<path d="M380.537 400.397C374.119 410.825 341.555 415.764 323.78 415.3C306.005 414.835 254.86 390.652 251.391 385.495C248.177 380.755 240.28 365.046 252.452 355.557C253.485 354.76 254.582 354.049 255.733 353.433C264.065 348.921 319.485 363.15 319.485 363.15C319.485 363.15 322.917 360.979 324.178 361.141C328.046 361.634 330.814 364.762 338.626 366.99C344.096 368.554 359.027 362.544 368.563 367.71C369.622 368.276 370.598 368.984 371.464 369.815C380.376 378.328 386.945 389.941 380.537 400.397Z" fill="white"/>
</mask>
<g mask="url(#mask0_3_60)">
<path opacity="0.3" d="M368.563 367.71C358.79 367.056 350.077 369.104 343.991 372.697C336.777 376.963 302.706 393.373 302.706 393.373C302.782 391.609 304.678 388.054 304.678 388.054C301.473 385.21 293.093 382.982 293.093 382.982C286.599 377.437 260.861 360.894 252.452 355.557C253.485 354.76 254.582 354.049 255.732 353.433C264.065 348.921 319.485 363.15 319.485 363.15C319.485 363.15 322.917 360.979 324.178 361.141C328.046 361.634 330.814 364.762 338.626 366.99C344.124 368.554 359.027 362.544 368.563 367.71Z" fill="black" fill-opacity="0.7"/>
</g>
<path d="M380.537 400.397C374.119 410.825 341.555 415.764 323.78 415.3C306.005 414.835 254.86 390.652 251.391 385.495C248.177 380.755 240.28 365.046 252.452 355.557C253.485 354.76 254.582 354.049 255.733 353.433C264.065 348.921 319.485 363.15 319.485 363.15C319.485 363.15 322.917 360.979 324.178 361.141C328.046 361.634 330.814 364.762 338.626 366.99C344.096 368.554 359.027 362.544 368.563 367.71C369.622 368.276 370.598 368.984 371.464 369.815C380.376 378.328 386.945 389.941 380.537 400.397Z" stroke="#263238" stroke-linecap="round" stroke-linejoin="round"/>
<path d="M370.545 409.839L371.36 413.413C371.36 413.413 369.18 419.594 359.595 420.609C350.011 421.623 344.333 423.737 339.687 424.012C337.259 424.204 334.818 424.165 332.397 423.898L331.449 422.495L370.545 409.839Z" fill="white" stroke="#263238" stroke-linecap="round" stroke-linejoin="round"/>
<path d="M314.888 409.46L331.497 422.495C339.502 421.811 347.456 420.62 355.31 418.931C363.179 417.111 370.052 414.504 370.422 410.92C371 405.479 365.179 403.99 358.268 404.199C356.979 404.199 355.652 404.331 354.315 404.464C343.252 405.649 329.184 399.544 329.184 399.544L314.888 409.46Z" fill="#263238"/>
<mask id="mask1_3_60" style="mask-type:luminance" maskUnits="userSpaceOnUse" x="314" y="399" width="57" height="24">
<path d="M314.888 409.46L331.497 422.495C339.502 421.811 347.456 420.62 355.31 418.931C363.179 417.111 370.052 414.504 370.422 410.92C371 405.479 365.179 403.99 358.268 404.199C356.979 404.199 355.652 404.331 354.315 404.464C343.252 405.649 329.184 399.544 329.184 399.544L314.888 409.46Z" fill="white"/>
</mask>
<g mask="url(#mask1_3_60)">
<path opacity="0.3" d="M370.431 410.787C367.207 411.987 364.113 413.511 361.198 415.338C361.198 415.338 345.774 423.272 322.064 415.101L314.888 409.46L329.184 399.534C329.184 399.534 343.242 405.649 354.315 404.454C355.652 404.312 356.979 404.217 358.268 404.189C365.132 403.98 370.905 405.44 370.431 410.787Z" fill="black" fill-opacity="0.7"/>
</g>
<path d="M314.888 409.46L331.497 422.495C339.502 421.811 347.456 420.62 355.31 418.931C363.179 417.111 370.052 414.504 370.422 410.92C371 405.479 365.179 403.99 358.268 404.199C356.979 404.199 355.652 404.331 354.315 404.464C343.252 405.649 329.184 399.544 329.184 399.544L314.888 409.46Z" stroke="#263238" stroke-linecap="round" stroke-linejoin="round"/>
<path d="M330.369 414.598C327.373 415.082 330.662 421.234 334.72 419.338C338.777 417.442 333.364 414.105 330.369 414.598Z" fill="white"/>
<mask id="mask2_3_60" style="mask-type:luminance" maskUnits="userSpaceOnUse" x="329" y="414" width="8" height="6">
<path d="M330.369 414.598C327.373 415.082 330.662 421.234 334.72 419.338C338.777 417.442 333.364 414.105 330.369 414.598Z" fill="white"/>
</mask>
<g mask="url(#mask2_3_60)">
<path opacity="0.2" d="M335.99 418.362C333.82 418.097 331.665 417.721 329.534 417.234C328.965 416.03 329.098 414.797 330.369 414.598C332.881 414.181 337.109 416.504 335.99 418.362Z" fill="black" fill-opacity="0.7"/>
</g>
<path d="M330.369 414.598C327.373 415.082 330.662 421.234 334.72 419.338C338.777 417.442 333.364 414.105 330.369 414.598Z" stroke="#263238" stroke-linecap="round" stroke-linejoin="round"/>
<path d="M355.31 418.921C363.179 417.101 370.052 414.494 370.422 410.911C371 405.469 365.179 403.981 358.268 404.189C357.965 404.483 351.262 410.958 355.31 418.921Z" fill="white"/>
<mask id="mask3_3_60" style="mask-type:luminance" maskUnits="userSpaceOnUse" x="354" y="404" width="17" height="15">
<path d="M355.31 418.921C363.179 417.101 370.052 414.494 370.422 410.911C371 405.469 365.179 403.981 358.268 404.189C357.965 404.483 351.262 410.958 355.31 418.921Z" fill="white"/>
</mask>
<g mask="url(#mask3_3_60)">
<path opacity="0.3" d="M370.431 410.787C367.207 411.987 364.113 413.511 361.198 415.338C359.12 416.298 356.942 417.026 354.704 417.509C352.049 410.209 357.984 404.464 358.268 404.189C365.132 403.981 370.905 405.441 370.431 410.787Z" fill="black" fill-opacity="0.7"/>
</g>
<path d="M355.31 418.921C363.179 417.101 370.052 414.494 370.422 410.911C371 405.469 365.179 403.981 358.268 404.189C357.965 404.483 351.262 410.958 355.31 418.921Z" stroke="#263238" stroke-linecap="round" stroke-linejoin="round"/>
<path d="M349.698 412.162H349.746C349.853 412.167 349.961 412.151 350.063 412.114C350.164 412.077 350.257 412.02 350.337 411.947C350.416 411.874 350.48 411.785 350.525 411.687C350.57 411.589 350.595 411.483 350.599 411.375C350.867 409.046 351.862 406.86 353.443 405.128C353.519 405.052 353.58 404.962 353.621 404.863C353.662 404.763 353.683 404.657 353.683 404.55C353.683 404.442 353.662 404.336 353.621 404.236C353.58 404.137 353.519 404.047 353.443 403.971C353.289 403.82 353.081 403.735 352.865 403.735C352.648 403.735 352.441 403.82 352.286 403.971C350.427 405.987 349.273 408.552 348.997 411.28C348.978 411.489 349.04 411.698 349.171 411.862C349.301 412.026 349.49 412.134 349.698 412.162Z" fill="white" stroke="#263238" stroke-linecap="round" stroke-linejoin="round"/>
<path d="M346.409 412.38H346.475C346.583 412.383 346.69 412.364 346.791 412.324C346.891 412.285 346.983 412.226 347.06 412.151C347.138 412.076 347.2 411.987 347.243 411.888C347.285 411.789 347.308 411.682 347.309 411.574C347.497 409.207 348.374 406.946 349.831 405.071C349.911 404.989 349.973 404.892 350.013 404.785C350.053 404.678 350.07 404.564 350.064 404.45C350.058 404.335 350.028 404.224 349.976 404.122C349.924 404.02 349.852 403.93 349.764 403.858C349.675 403.785 349.573 403.732 349.463 403.701C349.353 403.67 349.238 403.663 349.125 403.679C349.012 403.695 348.903 403.734 348.806 403.794C348.709 403.854 348.625 403.934 348.561 404.028C346.869 406.186 345.861 408.801 345.669 411.536C345.661 411.745 345.733 411.949 345.871 412.106C346.008 412.263 346.201 412.361 346.409 412.38Z" fill="white" stroke="#263238" stroke-linecap="round" stroke-linejoin="round"/>
<path d="M342.474 411.944C342.582 411.954 342.69 411.943 342.793 411.912C342.896 411.88 342.991 411.829 343.074 411.76C343.157 411.691 343.225 411.607 343.275 411.511C343.325 411.416 343.356 411.312 343.366 411.204C343.622 408.36 346.067 404.635 346.096 404.568C346.216 404.386 346.259 404.163 346.217 403.948C346.174 403.734 346.049 403.545 345.868 403.421C345.687 403.302 345.466 403.259 345.253 403.301C345.04 403.344 344.852 403.469 344.731 403.649C344.617 403.81 342.019 407.716 341.726 411.015C341.711 411.125 341.719 411.238 341.749 411.345C341.78 411.453 341.831 411.553 341.901 411.64C341.971 411.727 342.058 411.798 342.157 411.851C342.255 411.903 342.363 411.935 342.474 411.944Z" fill="white" stroke="#263238" stroke-linecap="round" stroke-linejoin="round"/>
<path d="M338.758 411.555C338.831 411.564 338.904 411.564 338.976 411.555C339.083 411.538 339.186 411.5 339.277 411.443C339.369 411.385 339.449 411.311 339.512 411.222C339.574 411.134 339.619 411.034 339.642 410.929C339.666 410.823 339.668 410.714 339.649 410.607C339.071 407.119 342.313 404.132 342.342 404.104C342.449 403.952 342.502 403.769 342.492 403.583C342.482 403.398 342.41 403.221 342.287 403.082C342.164 402.943 341.998 402.849 341.815 402.816C341.632 402.783 341.444 402.812 341.28 402.9C341.119 403.042 337.336 406.512 338.066 410.901C338.101 411.068 338.186 411.22 338.31 411.337C338.433 411.454 338.59 411.53 338.758 411.555Z" fill="white" stroke="#263238" stroke-linecap="round" stroke-linejoin="round"/>
<path d="M334.72 410.579C334.808 410.593 334.897 410.593 334.985 410.579C335.189 410.529 335.367 410.403 335.481 410.227C335.596 410.051 335.639 409.838 335.602 409.631C334.891 406.521 337.953 402.995 337.99 402.995C338.132 402.831 338.204 402.617 338.19 402.401C338.176 402.184 338.077 401.982 337.915 401.838C337.835 401.766 337.741 401.711 337.639 401.675C337.538 401.639 337.43 401.624 337.323 401.63C337.215 401.636 337.11 401.664 337.013 401.711C336.916 401.758 336.829 401.824 336.758 401.905C336.606 402.075 333.099 406.085 333.999 410.029C334.052 410.182 334.148 410.315 334.276 410.413C334.404 410.511 334.559 410.569 334.72 410.579Z" fill="white" stroke="#263238" stroke-linecap="round" stroke-linejoin="round"/>
<path d="M249.324 404.493L248.139 407.962C248.139 407.962 249.656 414.342 259.079 416.352C268.502 418.362 273.925 421.092 278.475 421.832C280.87 422.272 283.301 422.488 285.737 422.476L286.827 421.177L249.324 404.493Z" fill="white" stroke="#263238" stroke-linecap="round" stroke-linejoin="round"/>
<path d="M304.678 409.963L286.798 421.177C278.909 419.658 271.123 417.641 263.487 415.139C255.856 412.503 249.267 409.185 249.267 405.583C249.267 400.103 255.211 399.241 262.065 400.17C263.345 400.34 264.653 400.577 265.971 400.852C276.844 403.194 291.472 398.596 291.472 398.596L304.678 409.963Z" fill="#263238"/>
<mask id="mask4_3_60" style="mask-type:luminance" maskUnits="userSpaceOnUse" x="249" y="398" width="56" height="24">
<path d="M304.678 409.963L286.798 421.177C278.909 419.658 271.123 417.641 263.487 415.139C255.856 412.503 249.267 409.185 249.267 405.583C249.267 400.103 255.211 399.241 262.065 400.17C263.345 400.34 264.653 400.577 265.971 400.852C276.844 403.194 291.472 398.596 291.472 398.596L304.678 409.963Z" fill="white"/>
</mask>
<g mask="url(#mask4_3_60)">
<path opacity="0.3" d="M304.678 409.963L294.164 416.599C285.639 413.951 278.164 408.687 272.796 401.554C279.134 401.414 285.424 400.429 291.5 398.624L304.678 409.963Z" fill="black" fill-opacity="0.7"/>
</g>
<path d="M304.678 409.963L286.798 421.177C278.909 419.658 271.123 417.641 263.487 415.139C255.856 412.503 249.267 409.185 249.267 405.583C249.267 400.103 255.211 399.241 262.065 400.17C263.345 400.34 264.653 400.577 265.971 400.852C276.844 403.194 291.472 398.596 291.472 398.596L304.678 409.963Z" stroke="#263238" stroke-linecap="round" stroke-linejoin="round"/>
<path d="M263.487 415.129C255.856 412.494 249.267 409.176 249.267 405.573C249.267 400.094 255.211 399.231 262.065 400.16C262.368 400.483 268.35 407.64 263.487 415.129Z" fill="white" stroke="#263238" stroke-linecap="round" stroke-linejoin="round"/>
<path d="M269.782 408.996H269.734C269.516 408.981 269.313 408.881 269.168 408.718C269.022 408.555 268.947 408.342 268.957 408.124C268.942 405.783 268.189 403.508 266.805 401.62C266.725 401.537 266.662 401.438 266.622 401.33C266.582 401.222 266.566 401.106 266.574 400.991C266.581 400.875 266.613 400.763 266.667 400.661C266.721 400.558 266.796 400.469 266.886 400.397C266.977 400.326 267.082 400.274 267.194 400.246C267.306 400.217 267.423 400.213 267.537 400.233C267.651 400.252 267.759 400.296 267.855 400.36C267.951 400.424 268.033 400.508 268.094 400.606C269.73 402.795 270.609 405.457 270.597 408.19C270.595 408.404 270.508 408.609 270.355 408.76C270.202 408.911 269.996 408.996 269.782 408.996Z" fill="white" stroke="#263238" stroke-linecap="round" stroke-linejoin="round"/>
<path d="M273.024 409.536H272.948C272.731 409.517 272.53 409.412 272.39 409.245C272.249 409.078 272.181 408.862 272.199 408.645C272.267 406.275 271.637 403.938 270.389 401.924C270.326 401.834 270.282 401.733 270.259 401.626C270.236 401.52 270.234 401.409 270.253 401.302C270.273 401.195 270.313 401.092 270.372 401C270.431 400.909 270.507 400.829 270.597 400.767C270.687 400.705 270.788 400.661 270.894 400.638C271.001 400.614 271.111 400.612 271.219 400.632C271.326 400.651 271.429 400.691 271.52 400.75C271.612 400.809 271.691 400.886 271.754 400.976C273.218 403.297 273.945 406.007 273.839 408.749C273.83 408.96 273.74 409.158 273.588 409.305C273.437 409.451 273.235 409.534 273.024 409.536Z" fill="white" stroke="#263238" stroke-linecap="round" stroke-linejoin="round"/>
<path d="M276.987 409.536C276.769 409.531 276.561 409.441 276.409 409.285C276.257 409.129 276.171 408.92 276.171 408.702C276.228 405.81 274.181 401.895 274.152 401.857C274.052 401.662 274.032 401.435 274.098 401.226C274.164 401.017 274.309 400.841 274.503 400.739C274.697 400.639 274.922 400.619 275.13 400.685C275.338 400.751 275.511 400.896 275.612 401.089C275.707 401.26 277.878 405.412 277.821 408.73C277.816 408.947 277.726 409.154 277.569 409.305C277.413 409.455 277.204 409.539 276.987 409.536Z" fill="white" stroke="#263238" stroke-linecap="round" stroke-linejoin="round"/>
<path d="M280.722 409.536H280.504C280.294 409.476 280.117 409.336 280.01 409.146C279.904 408.956 279.877 408.732 279.935 408.522C280.883 405.118 277.973 401.8 277.944 401.772C277.862 401.693 277.797 401.599 277.753 401.494C277.709 401.389 277.687 401.277 277.689 401.163C277.69 401.049 277.715 400.937 277.762 400.834C277.809 400.73 277.877 400.638 277.962 400.562C278.046 400.486 278.146 400.428 278.253 400.392C278.361 400.356 278.475 400.343 278.589 400.354C278.702 400.364 278.812 400.398 278.911 400.452C279.011 400.507 279.098 400.582 279.167 400.672C279.309 400.833 282.713 404.682 281.518 408.967C281.462 409.134 281.355 409.278 281.212 409.381C281.069 409.483 280.897 409.537 280.722 409.536Z" fill="white" stroke="#263238" stroke-linecap="round" stroke-linejoin="round"/>
<path d="M284.846 408.996C284.755 408.999 284.664 408.983 284.58 408.948C284.477 408.915 284.381 408.862 284.299 408.791C284.217 408.72 284.15 408.633 284.102 408.536C284.054 408.438 284.027 408.332 284.021 408.224C284.015 408.116 284.031 408.007 284.068 407.905C285.102 404.891 282.419 401.07 282.4 401.032C282.322 400.946 282.264 400.844 282.228 400.733C282.193 400.623 282.181 400.506 282.194 400.39C282.207 400.274 282.244 400.163 282.303 400.063C282.362 399.963 282.442 399.876 282.536 399.809C282.631 399.742 282.739 399.695 282.853 399.673C282.967 399.65 283.085 399.652 283.198 399.678C283.311 399.704 283.418 399.753 283.511 399.824C283.604 399.894 283.68 399.983 283.736 400.084C283.869 400.265 286.931 404.625 285.632 408.455C285.572 408.615 285.465 408.752 285.324 408.849C285.183 408.946 285.016 408.997 284.846 408.996Z" fill="white" stroke="#263238" stroke-linecap="round" stroke-linejoin="round"/>
<path d="M288.742 413.442C291.671 414.248 287.794 419.983 283.917 417.708C280.039 415.433 285.822 412.645 288.742 413.442Z" fill="white" stroke="#263238" stroke-linecap="round" stroke-linejoin="round"/>
<path d="M254.936 382.992C259.325 389.145 272.341 395.942 285.272 401.544C287.585 405.375 290.312 408.939 293.406 412.171C301.388 420.381 304.64 415.783 304.64 415.783C304.64 415.783 309.683 415.215 317.125 414.2C317.435 414.922 317.975 415.521 318.661 415.903C319.347 416.286 320.14 416.43 320.917 416.314C321.865 416.163 323.761 414.778 325.856 412.949C344.655 410.105 370.166 405.365 377.048 399.847" fill="#38D112"/>
<path d="M254.936 382.992C259.325 389.145 272.341 395.942 285.272 401.544C287.585 405.375 290.312 408.939 293.406 412.171C301.388 420.381 304.64 415.783 304.64 415.783C304.64 415.783 309.683 415.215 317.125 414.2C317.435 414.922 317.975 415.521 318.661 415.903C319.347 416.286 320.14 416.43 320.917 416.314C321.865 416.163 323.761 414.778 325.856 412.949C344.655 410.105 370.166 405.365 377.048 399.847" stroke="#263238" stroke-linecap="round" stroke-linejoin="round"/>
<path d="M369.72 371.275C366.468 367.701 363.217 367.54 356.391 368.023C356.391 368.023 338.578 373.711 326.15 381.191C313.722 388.671 295.596 396.605 295.596 396.605C295.596 396.605 290.069 395.003 286.22 396.605C286.22 396.605 283.518 396.814 285.329 401.535" stroke="#263238" stroke-linecap="round" stroke-linejoin="round"/>
<path d="M377.987 392.633C377.987 392.633 378.081 398.141 370.27 401.952" stroke="#263238" stroke-linecap="round" stroke-linejoin="round"/>
<path d="M291.832 369.654C291.832 369.654 304.156 378.565 306.631 384.442C309.053 385.463 311.392 386.671 313.627 388.054" stroke="#263238" stroke-linecap="round" stroke-linejoin="round"/>
<path d="M307.522 377.058C308.426 379.619 308.577 382.386 307.958 385.03" stroke="#263238" stroke-linecap="round" stroke-linejoin="round"/>
<path d="M304.678 371.275C305.349 372.252 305.939 373.282 306.441 374.356" stroke="#263238" stroke-linecap="round" stroke-linejoin="round"/>
<path d="M322.235 370.459C322.235 370.459 326.358 375.977 327.382 380.451" stroke="#263238" stroke-linecap="round" stroke-linejoin="round"/>
<path d="M345.205 403.791C346.739 403.701 348.265 403.511 349.774 403.222" stroke="#263238" stroke-linecap="round" stroke-linejoin="round"/>
<path d="M306.517 399.838C318.202 402.153 330.057 403.513 341.963 403.905" stroke="#263238" stroke-linecap="round" stroke-linejoin="round"/>
<path d="M389.931 316.243C389.931 316.243 387.704 355.111 385.078 357.339C382.452 359.567 378.309 360.259 370.469 360.913C362.629 361.567 327.951 363.691 327.951 363.691L324.216 352.552C324.216 352.552 341.819 349.486 350 346.5C356.168 344.391 362 342.5 368.5 342.5C368.5 342.5 367.5 332.709 367.5 328.5L368.165 308.906" fill="#FFCBAE"/>
<path d="M389.931 316.243C389.931 316.243 387.704 355.111 385.078 357.339C382.452 359.567 378.309 360.259 370.469 360.913C362.629 361.567 327.951 363.691 327.951 363.691L324.216 352.552C324.216 352.552 341.819 349.486 350 346.5C356.168 344.391 362 342.5 368.5 342.5C368.5 342.5 367.5 332.709 367.5 328.5L368.165 308.906" stroke="#263238" stroke-linecap="round" stroke-linejoin="round"/>
<path d="M383.106 273.782C391.552 278.987 394.046 291.017 391.126 316.698C391.126 316.698 393.619 319.732 389.931 321.249C389.931 321.249 376.119 316.082 369.701 319.647C363.283 323.211 364.961 314.727 364.961 314.727C364.961 314.727 362.316 291.102 368.165 286.827" fill="#263238"/>
<path d="M367.388 283.215C367.388 283.215 359.264 291.662 366.44 313.011C365.987 314.753 365.67 316.528 365.492 318.319C365.492 319.751 367.454 320.49 367.454 320.49" stroke="white" stroke-linecap="round" stroke-linejoin="round"/>
<path d="M357.889 297.52C357.889 297.52 358.477 307.948 364.942 312.47" stroke="white" stroke-linecap="round" stroke-linejoin="round"/>
<path d="M359.975 273.308C359.975 273.308 347.376 278.134 337.355 272.787C331.411 269.621 333.857 264.53 333.857 264.53" stroke="white" stroke-linecap="round" stroke-linejoin="round"/>
<path d="M269.374 371.294H337.953C339.501 371.294 341.044 371.094 342.541 370.696L356.069 367.151C356.256 367.103 356.422 366.994 356.54 366.841C356.658 366.688 356.723 366.5 356.723 366.307C356.723 366.073 356.63 365.849 356.465 365.684C356.299 365.518 356.075 365.426 355.841 365.426H266.54C266.308 365.428 266.086 365.522 265.922 365.687C265.759 365.852 265.667 366.075 265.668 366.307V367.587C265.668 368.57 266.058 369.513 266.753 370.208C267.448 370.903 268.391 371.294 269.374 371.294Z" fill="#757575" stroke="#263238" stroke-linecap="round" stroke-linejoin="round"/>
<path d="M262.596 367.881H331.364C331.633 367.893 331.901 367.839 332.144 367.722C332.387 367.605 332.598 367.43 332.756 367.212C332.915 366.994 333.017 366.74 333.054 366.473C333.091 366.206 333.06 365.934 332.966 365.681L320.215 316.073C320.045 315.464 319.688 314.924 319.195 314.528C318.702 314.132 318.098 313.9 317.466 313.864H248.679C248.41 313.853 248.141 313.909 247.899 314.027C247.656 314.145 247.446 314.321 247.287 314.54C247.129 314.758 247.027 315.012 246.99 315.28C246.954 315.547 246.983 315.82 247.077 316.073L259.837 365.681C260.008 366.291 260.366 366.832 260.861 367.227C261.356 367.622 261.963 367.85 262.596 367.881Z" fill="#999999" stroke="#263238" stroke-linecap="round" stroke-linejoin="round"/>
<path d="M251.106 315.627H249.807" stroke="#263238" stroke-linecap="round" stroke-linejoin="round"/>
<path d="M261.183 315.627H254.472" stroke="#263238" stroke-linecap="round" stroke-linejoin="round"/>
<path d="M329.695 361.615L318.433 317.836C318.264 317.228 317.909 316.688 317.418 316.292C316.926 315.896 316.324 315.663 315.693 315.627H262.7" stroke="#263238" stroke-linecap="round" stroke-linejoin="round"/>
<path d="M330.672 365.426L330.387 364.335" stroke="#263238" stroke-linecap="round" stroke-linejoin="round"/>
<path d="M283.272 342.124C283.318 342.525 283.401 342.922 283.518 343.309C284.391 346.295 287.187 348.115 289.756 347.357C292.325 346.598 293.7 343.565 292.828 340.578C291.956 337.592 289.14 335.772 286.571 336.531C286.271 336.622 285.982 336.746 285.708 336.9C285.849 337.913 285.695 338.945 285.262 339.872C284.83 340.799 284.139 341.581 283.272 342.124Z" fill="white" stroke="#263238" stroke-linecap="round" stroke-linejoin="round"/>
<path d="M313.627 249.153C307.673 248.509 304.431 242.849 300.848 241.968C298.849 241.489 296.89 240.855 294.989 240.072C294.989 240.072 293.757 235.768 291.908 237.228C290.06 238.687 287.633 270.882 290.012 269.867C292.392 268.853 292.401 272.654 292.401 272.654L314.499 292.126L333.023 259.325C333.023 259.325 319.58 249.807 313.627 249.153Z" fill="#263238"/>
<path d="M133.554 134.512V134.038H134.028" stroke="#263238" stroke-linecap="round" stroke-linejoin="round"/>
<path d="M136.815 134.038H217.016" stroke="#263238" stroke-linecap="round" stroke-linejoin="round" stroke-dasharray="0.98 2.93"/>
<path d="M218.4 134.038H218.874V134.512" stroke="#263238" stroke-linecap="round" stroke-linejoin="round"/>
<path d="M218.884 137.356V189.022" stroke="#263238" stroke-linecap="round" stroke-linejoin="round" stroke-dasharray="1 3"/>
<path d="M218.874 190.444V190.918H218.4" stroke="#263238" stroke-linecap="round" stroke-linejoin="round"/>
<path d="M215.623 190.918H135.422" stroke="#263238" stroke-linecap="round" stroke-linejoin="round" stroke-dasharray="0.98 2.93"/>
<path d="M134.028 190.918H133.554V190.444" stroke="#263238" stroke-linecap="round" stroke-linejoin="round"/>
<path d="M133.564 187.6V135.934" stroke="#263238" stroke-linecap="round" stroke-linejoin="round" stroke-dasharray="1 3"/>
<path d="M176.224 135.441C176.999 135.441 177.627 134.813 177.627 134.038C177.627 133.263 176.999 132.635 176.224 132.635C175.449 132.635 174.821 133.263 174.821 134.038C174.821 134.813 175.449 135.441 176.224 135.441Z" fill="#38D112" stroke="#263238" stroke-linecap="round" stroke-linejoin="round"/>
<path d="M133.564 163.881C134.339 163.881 134.967 163.253 134.967 162.478C134.967 161.703 134.339 161.075 133.564 161.075C132.789 161.075 132.161 161.703 132.161 162.478C132.161 163.253 132.789 163.881 133.564 163.881Z" fill="#38D112" stroke="#263238" stroke-linecap="round" stroke-linejoin="round"/>
<path d="M176.224 192.321C176.999 192.321 177.627 191.693 177.627 190.918C177.627 190.143 176.999 189.515 176.224 189.515C175.449 189.515 174.821 190.143 174.821 190.918C174.821 191.693 175.449 192.321 176.224 192.321Z" fill="#38D112" stroke="#263238" stroke-linecap="round" stroke-linejoin="round"/>
<path d="M218.884 163.881C219.659 163.881 220.287 163.253 220.287 162.478C220.287 161.703 219.659 161.075 218.884 161.075C218.109 161.075 217.481 161.703 217.481 162.478C217.481 163.253 218.109 163.881 218.884 163.881Z" fill="#38D112" stroke="#263238" stroke-linecap="round" stroke-linejoin="round"/>
<path d="M220.514 189.287H217.244V192.558H220.514V189.287Z" fill="#38D112" stroke="#263238" stroke-linecap="round" stroke-linejoin="round"/>
<path d="M220.514 132.407H217.244V135.678H220.514V132.407Z" fill="#38D112" stroke="#263238" stroke-linecap="round" stroke-linejoin="round"/>
<path d="M135.194 189.287H131.924V192.558H135.194V189.287Z" fill="#38D112" stroke="#263238" stroke-linecap="round" stroke-linejoin="round"/>
<path d="M135.194 132.407H131.924V135.678H135.194V132.407Z" fill="#38D112" stroke="#263238" stroke-linecap="round" stroke-linejoin="round"/>
<path d="M213.48 139.072H139.223V186.254H213.48V139.072Z" fill="white" stroke="#263238" stroke-linecap="round" stroke-linejoin="round"/>
<path d="M213.48 172.318L205.223 180.575L182.888 158.24L173.493 167.635L158.515 152.656L139.223 171.939V186.254H213.48V172.318Z" fill="#38D112" stroke="#263238" stroke-linecap="round" stroke-linejoin="round"/>
<path d="M198.094 157.709C200.989 157.709 203.337 155.362 203.337 152.467C203.337 149.572 200.989 147.224 198.094 147.224C195.199 147.224 192.852 149.572 192.852 152.467C192.852 155.362 195.199 157.709 198.094 157.709Z" fill="#38D112" stroke="#263238" stroke-linecap="round" stroke-linejoin="round"/>
<path d="M317.58 257.856C317.58 257.856 311.892 268.445 311.219 284.646" stroke="white" stroke-linecap="round" stroke-linejoin="round"/>
<path d="M300.857 265.184C300.857 265.184 302.554 274.19 307.493 280.712" stroke="white" stroke-linecap="round" stroke-linejoin="round"/>
<path d="M324.216 302.346C324.216 302.346 332.748 330.369 351.281 338.616" stroke="white" stroke-linecap="round" stroke-linejoin="round"/>
<path d="M346.665 251.618C346.665 251.618 345.859 257.733 339.981 258.159C339.257 256.621 338.384 255.157 337.374 253.789C340.426 252.886 343.528 252.161 346.665 251.618Z" fill="#263238"/>
<path d="M359.188 252.045C359.188 252.045 369.019 253.249 373.133 240.053C377.247 226.856 374.014 216.912 357.747 212.124C348.722 209.47 339.735 211.603 336.445 218.438C333.658 224.287 334.976 229.151 334.341 231.113C333.62 233.312 326.965 235.18 326.965 236.687C326.965 237.929 330.653 240.053 330.653 240.053L329.572 243.333L330.587 243.873C330.587 243.873 328.691 251.258 329.572 253.865C330.198 255.761 346.854 256.557 348.153 251.836" fill="#FFCBAE"/>
<path d="M359.188 252.045C359.188 252.045 369.019 253.249 373.133 240.053C377.247 226.856 374.014 216.912 357.747 212.124C348.722 209.47 339.735 211.603 336.445 218.438C333.658 224.287 334.976 229.151 334.341 231.113C333.62 233.312 326.965 235.18 326.965 236.687C326.965 237.929 330.653 240.053 330.653 240.053L329.572 243.333L330.587 243.873C330.587 243.873 328.691 251.258 329.572 253.865C330.198 255.761 346.854 256.557 348.153 251.836" stroke="#263238" stroke-linecap="round" stroke-linejoin="round"/>
<path d="M336.54 223.226C336.54 223.226 339.792 224.041 340.683 225.747" stroke="#263238" stroke-linecap="round" stroke-linejoin="round"/>
<path d="M337.109 230.724C336.967 231.672 337.185 232.497 337.602 232.554C338.019 232.611 338.455 231.89 338.597 230.933C338.739 229.975 338.512 229.16 338.104 229.103C337.697 229.046 337.251 229.767 337.109 230.724Z" fill="#263238"/>
<path d="M330.587 243.873C330.587 243.873 335.876 245.902 337.848 244.679" stroke="#263238" stroke-linecap="round" stroke-linejoin="round"/>
<path d="M332.445 229.966C332.056 232.089 332.53 233.947 333.506 234.128C334.483 234.308 335.602 232.743 335.99 230.629C336.379 228.515 335.914 226.638 334.928 226.458C333.942 226.278 332.843 227.852 332.445 229.966Z" stroke="#263238" stroke-linecap="round" stroke-linejoin="round"/>
<path d="M373.569 219.168C372.777 215.327 370.571 211.923 367.388 209.631C363.84 207.14 359.777 205.478 355.5 204.768C355.5 204.768 358.638 206.143 359.832 207.953C359.832 207.953 351.708 201.848 342.057 205.858C332.407 209.868 333.611 220.287 333.611 220.287L335.014 217.557C335.014 217.557 334.853 220.808 336.559 222.003C337.07 220.41 337.767 218.882 338.635 217.452C338.635 217.452 341.195 225.141 348.238 227.748C347.76 226.535 347.72 225.194 348.125 223.956C348.125 223.956 352.03 232.402 350.893 236.526L352.135 238.687C352.135 238.687 356.619 234.147 360.268 237.929C362.364 240.109 356.258 248.357 355.386 248.357L359.074 253.77C359.074 253.77 368.289 255.088 373.597 245.105C378.906 235.123 377.607 230.885 377.607 230.885C377.607 230.885 379.342 233.312 379.503 234.677C379.522 234.658 381.096 223.937 373.569 219.168Z" fill="#263238"/>
<path d="M351.888 239.645C351.888 239.645 354.732 230.089 360.78 233.454C366.829 236.82 362.515 241.92 360.344 243.882C358.173 245.845 356.552 249.409 355.14 249.409C353.727 249.409 353.414 247.674 353.414 247.674" fill="#FFCBAE"/>
<path d="M351.888 239.645C351.888 239.645 354.732 230.089 360.78 233.454C366.829 236.82 362.515 241.92 360.344 243.882C358.173 245.845 356.552 249.409 355.14 249.409C353.727 249.409 353.414 247.674 353.414 247.674" stroke="#263238" stroke-linecap="round" stroke-linejoin="round"/>
<path d="M335.99 230.629L352.865 234.128" stroke="#263238" stroke-linecap="round" stroke-linejoin="round"/>
</g>
<defs>
<filter id="filter0_d_3_60" x="5.28072" y="-22.3984" width="460.762" height="519.951" filterUnits="userSpaceOnUse" color-interpolation-filters="sRGB">
<feFlood flood-opacity="0" result="BackgroundImageFix"/>
<feColorMatrix in="SourceAlpha" type="matrix" values="0 0 0 0 0 0 0 0 0 0 0 0 0 0 0 0 0 0 127 0" result="hardAlpha"/>
<feOffset/>
<feGaussianBlur stdDeviation="25"/>
<feComposite in2="hardAlpha" operator="out"/>
<feColorMatrix type="matrix" values="0 0 0 0 0.289167 0 0 0 0 0.70145 0 0 0 0 1 0 0 0 0.18 0"/>
<feBlend mode="normal" in2="BackgroundImageFix" result="effect1_dropShadow_3_60"/>
<feBlend mode="normal" in="SourceGraphic" in2="effect1_dropShadow_3_60" result="shape"/>
</filter>
<filter id="filter1_d_3_60" x="335.239" y="179.805" width="139.171" height="139.152" filterUnits="userSpaceOnUse" color-interpolation-filters="sRGB">
<feFlood flood-opacity="0" result="BackgroundImageFix"/>
<feColorMatrix in="SourceAlpha" type="matrix" values="0 0 0 0 0 0 0 0 0 0 0 0 0 0 0 0 0 0 127 0" result="hardAlpha"/>
<feOffset/>
<feGaussianBlur stdDeviation="25"/>
<feComposite in2="hardAlpha" operator="out"/>
<feColorMatrix type="matrix" values="0 0 0 0 0.289167 0 0 0 0 0.70145 0 0 0 0 1 0 0 0 0.18 0"/>
<feBlend mode="normal" in2="BackgroundImageFix" result="effect1_dropShadow_3_60"/>
<feBlend mode="normal" in="SourceGraphic" in2="effect1_dropShadow_3_60" result="shape"/>
</filter>
<linearGradient id="paint0_linear_3_60" x1="245.955" y1="57.4852" x2="245.955" y2="409.214" gradientUnits="userSpaceOnUse">
<stop stop-color="white"/>
<stop offset="1" stop-color="#0054B6"/>
</linearGradient>
<clipPath id="clip0_3_60">
<rect width="474" height="474" fill="white"/>
</clipPath>
</defs>
</svg>
